<?xml version="1.0" encoding="utf-8"?>
<!-- Generator: Adobe Illustrator 16.0.0, SVG Export Plug-In . SVG Version: 6.00 Build 0)  -->
<!DOCTYPE svg PUBLIC "-//W3C//DTD SVG 1.1//EN" "http://www.w3.org/Graphics/SVG/1.1/DTD/svg11.dtd">
<svg version="1.1" id="Layer_1" xmlns="http://www.w3.org/2000/svg" xmlns:xlink="http://www.w3.org/1999/xlink" x="0px" y="0px"
	 width="250px" height="250px" viewBox="0 0 250 250" enable-background="new 0 0 250 250" xml:space="preserve">
<g>
	<path stroke="#000000" stroke-width="0.8964" stroke-miterlimit="10" d="M129.072,160.771c0,0,0-17.558-28.958-13.86
		c-15.566,1.986-16.771,10.335-26.107,16.331c-8.029,5.16-15.982,4.719-33.346,4.006C40.661,167.248,112.128,218.07,129.072,160.771
		z"/>
	<path stroke="#000000" stroke-width="0.8964" stroke-miterlimit="10" d="M122.91,160.771c0,0,0-17.558,28.957-13.86
		c15.566,1.986,16.771,10.335,26.107,16.331c8.031,5.16,15.982,4.719,33.346,4.006C211.32,167.248,139.854,218.07,122.91,160.771z"
		/>
</g>
<path fill="none" stroke="#000000" stroke-width="3" stroke-miterlimit="10" d="M32.302,48.67"/>
<g>
	<g>
		<circle fill="#C6C6C6" stroke="#000000" stroke-width="3" stroke-miterlimit="10" cx="164.69" cy="77.678" r="26.632"/>
		<path fill="#F6F6F6" d="M155.382,55.804c-6.847,2.907-8.874,6.636-11.124,9.636s-3.25,8.375-3.25,10.25
			c0,0.334,3.312-11.386,20-20.25C161.459,55.2,158.527,54.468,155.382,55.804z"/>
	</g>
	<path fill="none" stroke="#000000" stroke-width="0.5" stroke-miterlimit="10" d="M192.542,76.75
		c2.379,0.261,4.095,2.401,3.834,4.78c-0.262,2.379-2.401,4.096-4.78,3.834"/>
</g>
<line fill="none" stroke="#000000" stroke-width="0.7636" stroke-miterlimit="10" x1="194.36" y1="84.806" x2="194.36" y2="202.564"/>
<ellipse fill="none" stroke="#000000" stroke-width="3.8063" stroke-miterlimit="10" cx="125.99" cy="120.941" rx="105.25" ry="106.958"/>
</svg>
