<?xml version="1.0" encoding="utf-8"?>
<!-- Generator: Adobe Illustrator 16.0.0, SVG Export Plug-In . SVG Version: 6.00 Build 0)  -->
<!DOCTYPE svg PUBLIC "-//W3C//DTD SVG 1.1//EN" "http://www.w3.org/Graphics/SVG/1.1/DTD/svg11.dtd">
<svg version="1.1" id="Layer_1" xmlns="http://www.w3.org/2000/svg" xmlns:xlink="http://www.w3.org/1999/xlink" x="0px" y="0px"
	 width="250px" height="250px" viewBox="0 0 250 250" enable-background="new 0 0 250 250" xml:space="preserve">
<rect fill="#DADADA" stroke="#000000" stroke-miterlimit="10" width="250" height="250"/>
<g>
	<polygon fill="#FCEA10" stroke="#000000" stroke-width="2.2797" stroke-miterlimit="10" points="206.956,107.063 87.247,107.063 
		101.398,77.227 220.991,77.227 	"/>
	<polygon fill="#FCEA10" stroke="#000000" stroke-width="1.9362" stroke-miterlimit="10" points="158.897,141.476 71.048,141.476 
		84.904,111.64 172.709,111.64 	"/>
	<polygon fill="#FCEA10" stroke="#000000" stroke-width="2.1296" stroke-miterlimit="10" points="143.374,174.472 26.673,174.472 
		40.132,145.541 156.881,145.541 	"/>
</g>
<path fill="none" stroke="#000000" stroke-width="8.056" stroke-miterlimit="10" d="M36.338,50.22
	C60.016,23.58,93.962,6.577,124.827,6.577c65.63,0,118.825,53.2,118.825,118.828c0,65.63-53.194,118.826-118.825,118.826
	C59.2,244.23,6,191.034,6,125.404C6,96.877,18.134,70.701,36.338,50.22"/>
</svg>
